<?xml version="1.0" encoding="UTF-8" standalone="no"?>
<!DOCTYPE svg PUBLIC "-//W3C//DTD SVG 1.1//EN" "http://www.w3.org/Graphics/SVG/1.1/DTD/svg11.dtd">
<!-- Generated by graphviz version 2.40.1 (20161225.0304)
 -->
<!-- Title: G Pages: 1 -->
<svg width="350pt" height="724pt" viewBox="0.00 0.00 350.00 724.00" xmlns="http://www.w3.org/2000/svg" xmlns:xlink="http://www.w3.org/1999/xlink">
<g id="graph0" class="graph" transform="scale(1 1) rotate(0) translate(4 720)">
<title>G</title>
<polygon fill="#ffffff" stroke="transparent" points="-4,4 -4,-720 346,-720 346,4 -4,4"/>
<g id="clust1" class="cluster">
<title>cluster_main</title>
<polygon fill="none" stroke="#000000" points="8,-8 8,-708 334,-708 334,-8 8,-8"/>
<text text-anchor="middle" x="171" y="-691.4" font-family="Times,serif" font-size="14.00" fill="#000000">main</text>
</g>
<!-- main_block_0 -->
<g id="node1" class="node">
<title>main_block_0</title>
<polygon fill="none" stroke="#000000" points="233.2616,-675.0019 100.7384,-675.0019 100.7384,-633.7981 233.2616,-633.7981 233.2616,-675.0019"/>
<text text-anchor="start" x="108.6193" y="-658.6" font-family="Times,serif" font-size="14.00" fill="#000000">*i32 %0 = alloca i32</text>
<text text-anchor="start" x="108.6193" y="-641.8" font-family="Times,serif" font-size="14.00" fill="#000000">store i32 0, *i32 %0</text>
</g>
<!-- main_block_1 -->
<g id="node2" class="node">
<title>main_block_1</title>
<polygon fill="none" stroke="#000000" points="259.1022,-597.6 74.8978,-597.6 74.8978,-505.6 259.1022,-505.6 259.1022,-597.6"/>
<text text-anchor="start" x="82.9489" y="-581" font-family="Times,serif" font-size="14.00" fill="#000000">l0: nop</text>
<text text-anchor="start" x="82.9489" y="-564.2" font-family="Times,serif" font-size="14.00" fill="#000000">i32 %1 = load *i32 %0</text>
<text text-anchor="start" x="82.9489" y="-547.4" font-family="Times,serif" font-size="14.00" fill="#000000">bool %2 = lt i32 %1, i32 10</text>
<text text-anchor="start" x="82.9489" y="-530.6" font-family="Times,serif" font-size="14.00" fill="#000000">bool %3 = eq bool %2, bool 0</text>
<text text-anchor="start" x="82.9489" y="-513.8" font-family="Times,serif" font-size="14.00" fill="#000000">br bool %3, l2</text>
</g>
<!-- main_block_0&#45;&gt;main_block_1 -->
<g id="edge1" class="edge">
<title>main_block_0-&gt;main_block_1</title>
<path fill="none" stroke="#000000" d="M167,-633.5969C167,-626.0946 167,-617.225 167,-608.139"/>
<polygon fill="#000000" stroke="#000000" points="170.5001,-607.8501 167,-597.8501 163.5001,-607.8502 170.5001,-607.8501"/>
</g>
<!-- main_block_2 -->
<g id="node3" class="node">
<title>main_block_2</title>
<polygon fill="none" stroke="#000000" points="259.1022,-469.6 74.8978,-469.6 74.8978,-377.6 259.1022,-377.6 259.1022,-469.6"/>
<text text-anchor="start" x="82.9489" y="-453" font-family="Times,serif" font-size="14.00" fill="#000000">i32 %4 = load *i32 %0</text>
<text text-anchor="start" x="82.9489" y="-436.2" font-family="Times,serif" font-size="14.00" fill="#000000">i32 %5 = mod i32 %4, i32 2</text>
<text text-anchor="start" x="82.9489" y="-419.4" font-family="Times,serif" font-size="14.00" fill="#000000">bool %6 = eq i32 %5, i32 0</text>
<text text-anchor="start" x="82.9489" y="-402.6" font-family="Times,serif" font-size="14.00" fill="#000000">bool %7 = eq bool %6, bool 0</text>
<text text-anchor="start" x="82.9489" y="-385.8" font-family="Times,serif" font-size="14.00" fill="#000000">br bool %7, l3</text>
</g>
<!-- main_block_1&#45;&gt;main_block_2 -->
<g id="edge2" class="edge">
<title>main_block_1-&gt;main_block_2</title>
<path fill="none" stroke="#000000" d="M167,-505.3891C167,-497.1417 167,-488.4661 167,-479.9724"/>
<polygon fill="#000000" stroke="#000000" points="170.5001,-479.7431 167,-469.7431 163.5001,-479.7431 170.5001,-479.7431"/>
</g>
<!-- main_block_8 -->
<g id="node4" class="node">
<title>main_block_8</title>
<polygon fill="none" stroke="#000000" points="303.1573,-91.0019 240.8427,-91.0019 240.8427,-49.7981 303.1573,-49.7981 303.1573,-91.0019"/>
<text text-anchor="start" x="248.6718" y="-74.6" font-family="Times,serif" font-size="14.00" fill="#000000">l2: nop</text>
<text text-anchor="start" x="248.6718" y="-57.8" font-family="Times,serif" font-size="14.00" fill="#000000">ret i32 0</text>
</g>
<!-- main_block_1&#45;&gt;main_block_8 -->
<g id="edge3" class="edge">
<title>main_block_1-&gt;main_block_8</title>
<path fill="none" stroke="#000000" d="M234.3971,-505.4658C246.7572,-494.7658 258.6775,-482.648 268,-469.6 303.231,-420.2901 304.3918,-401.267 315,-341.6 330.4966,-254.438 300.8826,-151.0207 283.451,-100.7986"/>
<polygon fill="#000000" stroke="#000000" points="286.6863,-99.4501 280.0404,-91.1988 280.0902,-101.7935 286.6863,-99.4501"/>
</g>
<!-- main_block_3 -->
<g id="node5" class="node">
<title>main_block_3</title>
<polygon fill="none" stroke="#000000" points="90,-305.2 36,-305.2 36,-269.2 90,-269.2 90,-305.2"/>
<text text-anchor="start" x="44" y="-283" font-family="Times,serif" font-size="14.00" fill="#000000">br l1</text>
</g>
<!-- main_block_2&#45;&gt;main_block_3 -->
<g id="edge4" class="edge">
<title>main_block_2-&gt;main_block_3</title>
<path fill="none" stroke="#000000" d="M127.2745,-377.4652C117.7648,-365.944 107.8176,-353.4809 99,-341.6 92.5205,-332.8695 85.8382,-323.0369 80.0163,-314.1565"/>
<polygon fill="#000000" stroke="#000000" points="82.8939,-312.161 74.5205,-305.6695 77.0182,-315.9658 82.8939,-312.161"/>
</g>
<!-- main_block_6 -->
<g id="node6" class="node">
<title>main_block_6</title>
<polygon fill="none" stroke="#000000" points="306.1022,-341.5002 107.8978,-341.5002 107.8978,-232.8998 306.1022,-232.8998 306.1022,-341.5002"/>
<text text-anchor="start" x="115.9489" y="-325" font-family="Times,serif" font-size="14.00" fill="#000000">l3: nop</text>
<text text-anchor="start" x="115.9489" y="-308.2" font-family="Times,serif" font-size="14.00" fill="#000000">i32 %8 = load *i32 %0</text>
<text text-anchor="start" x="115.9489" y="-291.4" font-family="Times,serif" font-size="14.00" fill="#000000">i32 %9 = mod i32 %8, i32 3</text>
<text text-anchor="start" x="115.9489" y="-274.6" font-family="Times,serif" font-size="14.00" fill="#000000">bool %10 = eq i32 %9, i32 0</text>
<text text-anchor="start" x="115.9489" y="-257.8" font-family="Times,serif" font-size="14.00" fill="#000000">bool %11 = eq bool %10, bool 0</text>
<text text-anchor="start" x="115.9489" y="-241" font-family="Times,serif" font-size="14.00" fill="#000000">br bool %11, l4</text>
</g>
<!-- main_block_2&#45;&gt;main_block_6 -->
<g id="edge5" class="edge">
<title>main_block_2-&gt;main_block_6</title>
<path fill="none" stroke="#000000" d="M180.5422,-377.4212C182.9793,-369.1105 185.5598,-360.311 188.1159,-351.5947"/>
<polygon fill="#000000" stroke="#000000" points="191.527,-352.4004 190.9825,-341.8196 184.8099,-350.4305 191.527,-352.4004"/>
</g>
<!-- main_block_5 -->
<g id="node7" class="node">
<title>main_block_5</title>
<polygon fill="none" stroke="#000000" points="200.1022,-124.7002 15.8978,-124.7002 15.8978,-16.0998 200.1022,-16.0998 200.1022,-124.7002"/>
<text text-anchor="start" x="23.9489" y="-108.2" font-family="Times,serif" font-size="14.00" fill="#000000">l1: nop</text>
<text text-anchor="start" x="23.9489" y="-91.4" font-family="Times,serif" font-size="14.00" fill="#000000">i32 %12 = load *i32 %0</text>
<text text-anchor="start" x="23.9489" y="-74.6" font-family="Times,serif" font-size="14.00" fill="#000000">i32 %13 = add i32 %12, i32 1</text>
<text text-anchor="start" x="23.9489" y="-57.8" font-family="Times,serif" font-size="14.00" fill="#000000">i32 %14 = i32 %13</text>
<text text-anchor="start" x="23.9489" y="-41" font-family="Times,serif" font-size="14.00" fill="#000000">store i32 %14, *i32 %0</text>
<text text-anchor="start" x="23.9489" y="-24.2" font-family="Times,serif" font-size="14.00" fill="#000000">br l0</text>
</g>
<!-- main_block_3&#45;&gt;main_block_5 -->
<g id="edge6" class="edge">
<title>main_block_3-&gt;main_block_5</title>
<path fill="none" stroke="#000000" d="M66.7593,-269.0886C72.8206,-239.8865 85.0413,-181.0098 94.6137,-134.8923"/>
<polygon fill="#000000" stroke="#000000" points="98.0691,-135.4661 96.6746,-124.9634 91.2152,-134.0434 98.0691,-135.4661"/>
</g>
<!-- main_block_4 -->
<g id="node8" class="node">
<title>main_block_4</title>
<polygon fill="none" stroke="#000000" points="181.7819,-196.8 126.2181,-196.8 126.2181,-160.8 181.7819,-160.8 181.7819,-196.8"/>
<text text-anchor="start" x="134.3594" y="-174.6" font-family="Times,serif" font-size="14.00" fill="#000000">l4: nop</text>
</g>
<!-- main_block_6&#45;&gt;main_block_4 -->
<g id="edge10" class="edge">
<title>main_block_6-&gt;main_block_4</title>
<path fill="none" stroke="#000000" d="M180.3447,-232.6824C175.824,-223.4363 171.3093,-214.2025 167.3269,-206.0573"/>
<polygon fill="#000000" stroke="#000000" points="170.4647,-204.5066 162.928,-197.0603 164.1761,-207.5813 170.4647,-204.5066"/>
</g>
<!-- main_block_7 -->
<g id="node9" class="node">
<title>main_block_7</title>
<polygon fill="none" stroke="#000000" points="266,-196.8 212,-196.8 212,-160.8 266,-160.8 266,-196.8"/>
<text text-anchor="start" x="220" y="-174.6" font-family="Times,serif" font-size="14.00" fill="#000000">br l2</text>
</g>
<!-- main_block_6&#45;&gt;main_block_7 -->
<g id="edge9" class="edge">
<title>main_block_6-&gt;main_block_7</title>
<path fill="none" stroke="#000000" d="M223.0937,-232.6824C225.7342,-223.7378 228.3713,-214.8047 230.7173,-206.8576"/>
<polygon fill="#000000" stroke="#000000" points="234.135,-207.6421 233.6095,-197.0603 227.4214,-205.6601 234.135,-207.6421"/>
</g>
<!-- main_block_5&#45;&gt;main_block_1 -->
<g id="edge8" class="edge">
<title>main_block_5-&gt;main_block_1</title>
<path fill="none" stroke="#000000" d="M72.9583,-124.7064C55.3971,-155.1648 35.9935,-194.6189 27,-232.8 15.9134,-279.8675 19.8754,-293.7722 27,-341.6 35.7623,-400.4219 32.799,-420.2595 66,-469.6 72.9646,-479.9502 81.6256,-489.6514 90.9268,-498.5018"/>
<polygon fill="#000000" stroke="#000000" points="88.7566,-501.2596 98.5032,-505.4134 93.4743,-496.0881 88.7566,-501.2596"/>
</g>
<!-- main_block_4&#45;&gt;main_block_5 -->
<g id="edge7" class="edge">
<title>main_block_4-&gt;main_block_5</title>
<path fill="none" stroke="#000000" d="M146.1967,-160.4114C143.011,-152.9043 139.1213,-143.7381 135.0571,-134.1606"/>
<polygon fill="#000000" stroke="#000000" points="138.2526,-132.731 131.1242,-124.8928 131.8088,-135.4655 138.2526,-132.731"/>
</g>
<!-- main_block_7&#45;&gt;main_block_8 -->
<g id="edge11" class="edge">
<title>main_block_7-&gt;main_block_8</title>
<path fill="none" stroke="#000000" d="M244.598,-160.4114C249.5548,-144.1292 256.8875,-120.0424 262.7205,-100.8818"/>
<polygon fill="#000000" stroke="#000000" points="266.1335,-101.6882 265.6976,-91.1023 259.437,-99.6495 266.1335,-101.6882"/>
</g>
</g>
</svg>